<mxfile host="app.diagrams.net" modified="2023-04-17T05:49:48.479Z" agent="Mozilla/5.0 (Windows NT 10.0; Win64; x64; rv:109.0) Gecko/20100101 Firefox/111.0" etag="9Jrn6LPayYLHsaqwdGS1" version="21.1.8" type="github" pages="2">
  <diagram id="prtHgNgQTEPvFCAcTncT" name="Page-1">
    <mxGraphModel dx="1195" dy="628" grid="1" gridSize="10" guides="1" tooltips="1" connect="1" arrows="1" fold="1" page="1" pageScale="1" pageWidth="827" pageHeight="1169" math="0" shadow="0">
      <root>
        <mxCell id="0" />
        <mxCell id="1" parent="0" />
        <mxCell id="jpMDB658xM3ZWiIn-4ZV-138" value="管理员" style="swimlane;whiteSpace=wrap" vertex="1" parent="1">
          <mxGeometry x="330" y="900" width="280" height="570" as="geometry" />
        </mxCell>
        <mxCell id="jpMDB658xM3ZWiIn-4ZV-139" value="" style="ellipse;shape=startState;fillColor=#000000;strokeColor=#ff0000;" vertex="1" parent="jpMDB658xM3ZWiIn-4ZV-138">
          <mxGeometry x="100" y="40" width="30" height="30" as="geometry" />
        </mxCell>
        <mxCell id="jpMDB658xM3ZWiIn-4ZV-140" value="" style="edgeStyle=elbowEdgeStyle;elbow=horizontal;verticalAlign=bottom;endArrow=open;endSize=8;strokeColor=#FF0000;endFill=1;rounded=0" edge="1" parent="jpMDB658xM3ZWiIn-4ZV-138" source="jpMDB658xM3ZWiIn-4ZV-139" target="jpMDB658xM3ZWiIn-4ZV-141">
          <mxGeometry x="100" y="40" as="geometry">
            <mxPoint x="115" y="110" as="targetPoint" />
          </mxGeometry>
        </mxCell>
        <mxCell id="jpMDB658xM3ZWiIn-4ZV-190" value="" style="edgeStyle=none;rounded=0;orthogonalLoop=1;jettySize=auto;html=1;" edge="1" parent="jpMDB658xM3ZWiIn-4ZV-138" source="jpMDB658xM3ZWiIn-4ZV-141" target="jpMDB658xM3ZWiIn-4ZV-189">
          <mxGeometry relative="1" as="geometry" />
        </mxCell>
        <mxCell id="jpMDB658xM3ZWiIn-4ZV-141" value="管理登陆" style="" vertex="1" parent="jpMDB658xM3ZWiIn-4ZV-138">
          <mxGeometry x="60" y="90" width="110" height="50" as="geometry" />
        </mxCell>
        <mxCell id="jpMDB658xM3ZWiIn-4ZV-192" value="" style="edgeStyle=none;rounded=0;orthogonalLoop=1;jettySize=auto;html=1;" edge="1" parent="jpMDB658xM3ZWiIn-4ZV-138" source="jpMDB658xM3ZWiIn-4ZV-142" target="jpMDB658xM3ZWiIn-4ZV-191">
          <mxGeometry relative="1" as="geometry" />
        </mxCell>
        <mxCell id="jpMDB658xM3ZWiIn-4ZV-142" value="设置讨论模块" style="" vertex="1" parent="jpMDB658xM3ZWiIn-4ZV-138">
          <mxGeometry x="40" y="219" width="80" height="50" as="geometry" />
        </mxCell>
        <mxCell id="jpMDB658xM3ZWiIn-4ZV-182" value="" style="endArrow=classic;html=1;rounded=0;exitX=0.159;exitY=1.04;exitDx=0;exitDy=0;exitPerimeter=0;entryX=0.323;entryY=-0.023;entryDx=0;entryDy=0;entryPerimeter=0;" edge="1" parent="jpMDB658xM3ZWiIn-4ZV-138" source="jpMDB658xM3ZWiIn-4ZV-141" target="jpMDB658xM3ZWiIn-4ZV-142">
          <mxGeometry width="50" height="50" relative="1" as="geometry">
            <mxPoint x="60" y="210" as="sourcePoint" />
            <mxPoint x="110" y="160" as="targetPoint" />
          </mxGeometry>
        </mxCell>
        <mxCell id="jpMDB658xM3ZWiIn-4ZV-189" value="设置内容标签" style="rounded=0;whiteSpace=wrap;html=1;" vertex="1" parent="jpMDB658xM3ZWiIn-4ZV-138">
          <mxGeometry x="140" y="220" width="80" height="50" as="geometry" />
        </mxCell>
        <mxCell id="jpMDB658xM3ZWiIn-4ZV-191" value="" style="shape=line;strokeWidth=6;strokeColor=#ff0000;rotation=90;direction=south;" vertex="1" parent="jpMDB658xM3ZWiIn-4ZV-138">
          <mxGeometry x="107.5" y="310" width="15" height="50" as="geometry" />
        </mxCell>
        <mxCell id="jpMDB658xM3ZWiIn-4ZV-193" value="" style="endArrow=classic;html=1;rounded=0;exitX=0.5;exitY=1;exitDx=0;exitDy=0;" edge="1" parent="jpMDB658xM3ZWiIn-4ZV-138" source="jpMDB658xM3ZWiIn-4ZV-189">
          <mxGeometry width="50" height="50" relative="1" as="geometry">
            <mxPoint x="170" y="330" as="sourcePoint" />
            <mxPoint x="130" y="320" as="targetPoint" />
          </mxGeometry>
        </mxCell>
        <mxCell id="jpMDB658xM3ZWiIn-4ZV-147" value="用户" style="swimlane;whiteSpace=wrap" vertex="1" parent="1">
          <mxGeometry x="600" y="900" width="280" height="570" as="geometry" />
        </mxCell>
        <mxCell id="jpMDB658xM3ZWiIn-4ZV-148" value="" style="ellipse;shape=startState;fillColor=#000000;strokeColor=#ff0000;" vertex="1" parent="jpMDB658xM3ZWiIn-4ZV-147">
          <mxGeometry x="60" y="40" width="30" height="30" as="geometry" />
        </mxCell>
        <mxCell id="jpMDB658xM3ZWiIn-4ZV-149" value="" style="edgeStyle=elbowEdgeStyle;elbow=horizontal;verticalAlign=bottom;endArrow=open;endSize=8;strokeColor=#FF0000;endFill=1;rounded=0" edge="1" parent="jpMDB658xM3ZWiIn-4ZV-147" source="jpMDB658xM3ZWiIn-4ZV-148" target="jpMDB658xM3ZWiIn-4ZV-150">
          <mxGeometry x="40" y="20" as="geometry">
            <mxPoint x="55" y="90" as="targetPoint" />
          </mxGeometry>
        </mxCell>
        <mxCell id="jpMDB658xM3ZWiIn-4ZV-150" value="idle" style="" vertex="1" parent="jpMDB658xM3ZWiIn-4ZV-147">
          <mxGeometry x="20" y="110" width="110" height="50" as="geometry" />
        </mxCell>
        <mxCell id="jpMDB658xM3ZWiIn-4ZV-151" value="check for &#xa;new commands" style="" vertex="1" parent="jpMDB658xM3ZWiIn-4ZV-147">
          <mxGeometry x="20" y="220" width="110" height="50" as="geometry" />
        </mxCell>
        <mxCell id="jpMDB658xM3ZWiIn-4ZV-152" value="" style="endArrow=open;strokeColor=#FF0000;endFill=1;rounded=0" edge="1" parent="jpMDB658xM3ZWiIn-4ZV-147" source="jpMDB658xM3ZWiIn-4ZV-150" target="jpMDB658xM3ZWiIn-4ZV-151">
          <mxGeometry relative="1" as="geometry" />
        </mxCell>
        <mxCell id="jpMDB658xM3ZWiIn-4ZV-153" value="command queue" style="" vertex="1" parent="jpMDB658xM3ZWiIn-4ZV-147">
          <mxGeometry x="20" y="325" width="110" height="50" as="geometry" />
        </mxCell>
        <mxCell id="jpMDB658xM3ZWiIn-4ZV-154" value="" style="endArrow=open;strokeColor=#FF0000;endFill=1;rounded=0" edge="1" parent="jpMDB658xM3ZWiIn-4ZV-147" source="jpMDB658xM3ZWiIn-4ZV-151" target="jpMDB658xM3ZWiIn-4ZV-153">
          <mxGeometry relative="1" as="geometry" />
        </mxCell>
        <mxCell id="jpMDB658xM3ZWiIn-4ZV-155" value="queue empty" style="rhombus;fillColor=#ffffc0;strokeColor=#ff0000;" vertex="1" parent="jpMDB658xM3ZWiIn-4ZV-147">
          <mxGeometry x="150" y="225" width="80" height="40" as="geometry" />
        </mxCell>
        <mxCell id="jpMDB658xM3ZWiIn-4ZV-156" value="yes" style="edgeStyle=elbowEdgeStyle;elbow=horizontal;align=left;verticalAlign=bottom;endArrow=open;endSize=8;strokeColor=#FF0000;exitX=0.5;exitY=0;endFill=1;rounded=0;entryX=0.75;entryY=0.5;entryPerimeter=0" edge="1" parent="jpMDB658xM3ZWiIn-4ZV-147" source="jpMDB658xM3ZWiIn-4ZV-155" target="jpMDB658xM3ZWiIn-4ZV-159">
          <mxGeometry x="-1" relative="1" as="geometry">
            <mxPoint x="160" y="150" as="targetPoint" />
            <Array as="points">
              <mxPoint x="190" y="180" />
            </Array>
          </mxGeometry>
        </mxCell>
        <mxCell id="jpMDB658xM3ZWiIn-4ZV-157" value="no" style="edgeStyle=elbowEdgeStyle;elbow=horizontal;align=left;verticalAlign=top;endArrow=open;endSize=8;strokeColor=#FF0000;endFill=1;rounded=0" edge="1" parent="jpMDB658xM3ZWiIn-4ZV-147" source="jpMDB658xM3ZWiIn-4ZV-155" target="jpMDB658xM3ZWiIn-4ZV-161">
          <mxGeometry x="-1" relative="1" as="geometry">
            <mxPoint x="190" y="305" as="targetPoint" />
          </mxGeometry>
        </mxCell>
        <mxCell id="jpMDB658xM3ZWiIn-4ZV-158" value="" style="endArrow=open;strokeColor=#FF0000;endFill=1;rounded=0" edge="1" parent="jpMDB658xM3ZWiIn-4ZV-147" source="jpMDB658xM3ZWiIn-4ZV-151" target="jpMDB658xM3ZWiIn-4ZV-155">
          <mxGeometry relative="1" as="geometry" />
        </mxCell>
        <mxCell id="jpMDB658xM3ZWiIn-4ZV-159" value="" style="shape=line;strokeWidth=6;strokeColor=#ff0000;rotation=90" vertex="1" parent="jpMDB658xM3ZWiIn-4ZV-147">
          <mxGeometry x="130" y="127.5" width="50" height="15" as="geometry" />
        </mxCell>
        <mxCell id="jpMDB658xM3ZWiIn-4ZV-160" value="" style="edgeStyle=elbowEdgeStyle;elbow=horizontal;verticalAlign=bottom;endArrow=open;endSize=8;strokeColor=#FF0000;endFill=1;rounded=0" edge="1" parent="jpMDB658xM3ZWiIn-4ZV-147" source="jpMDB658xM3ZWiIn-4ZV-159" target="jpMDB658xM3ZWiIn-4ZV-150">
          <mxGeometry x="130" y="90" as="geometry">
            <mxPoint x="230" y="140" as="targetPoint" />
          </mxGeometry>
        </mxCell>
        <mxCell id="jpMDB658xM3ZWiIn-4ZV-161" value="dispatch&#xa;command&#xa;worker thread" style="" vertex="1" parent="jpMDB658xM3ZWiIn-4ZV-147">
          <mxGeometry x="140" y="325" width="110" height="50" as="geometry" />
        </mxCell>
        <mxCell id="jpMDB658xM3ZWiIn-4ZV-162" value="critical&#xa;section" style="shape=note;whiteSpace=wrap;size=17" vertex="1" parent="jpMDB658xM3ZWiIn-4ZV-147">
          <mxGeometry x="105" y="490" width="100" height="50" as="geometry" />
        </mxCell>
        <mxCell id="jpMDB658xM3ZWiIn-4ZV-163" value="" style="endArrow=none;strokeColor=#FF0000;endFill=0;rounded=0;dashed=1" edge="1" parent="jpMDB658xM3ZWiIn-4ZV-147" source="jpMDB658xM3ZWiIn-4ZV-153" target="jpMDB658xM3ZWiIn-4ZV-162">
          <mxGeometry relative="1" as="geometry" />
        </mxCell>
        <mxCell id="jpMDB658xM3ZWiIn-4ZV-164" value="" style="whiteSpace=wrap;strokeColor=#FF0000;fillColor=#FF0000" vertex="1" parent="jpMDB658xM3ZWiIn-4ZV-147">
          <mxGeometry x="245" y="395" width="5" height="45" as="geometry" />
        </mxCell>
        <mxCell id="jpMDB658xM3ZWiIn-4ZV-165" value="" style="edgeStyle=elbowEdgeStyle;elbow=horizontal;entryX=0;entryY=0.5;strokeColor=#FF0000;endArrow=open;endFill=1;rounded=0" edge="1" parent="jpMDB658xM3ZWiIn-4ZV-147" source="jpMDB658xM3ZWiIn-4ZV-161" target="jpMDB658xM3ZWiIn-4ZV-164">
          <mxGeometry width="100" height="100" relative="1" as="geometry">
            <mxPoint x="60" y="480" as="sourcePoint" />
            <mxPoint x="160" y="380" as="targetPoint" />
            <Array as="points">
              <mxPoint x="195" y="400" />
            </Array>
          </mxGeometry>
        </mxCell>
        <mxCell id="jpMDB658xM3ZWiIn-4ZV-166" value="Thread 3" style="swimlane;whiteSpace=wrap" vertex="1" parent="1">
          <mxGeometry x="880" y="900" width="280" height="570" as="geometry" />
        </mxCell>
        <mxCell id="jpMDB658xM3ZWiIn-4ZV-167" value="process&#xa;command" style="" vertex="1" parent="jpMDB658xM3ZWiIn-4ZV-166">
          <mxGeometry x="90" y="405" width="110" height="50" as="geometry" />
        </mxCell>
        <mxCell id="jpMDB658xM3ZWiIn-4ZV-168" value="" style="edgeStyle=elbowEdgeStyle;elbow=horizontal;strokeColor=#FF0000;endArrow=open;endFill=1;rounded=0;entryX=0.25;entryY=0.5;entryPerimeter=0" edge="1" parent="jpMDB658xM3ZWiIn-4ZV-166" target="jpMDB658xM3ZWiIn-4ZV-159">
          <mxGeometry width="100" height="100" relative="1" as="geometry">
            <mxPoint x="-30" y="410" as="sourcePoint" />
            <mxPoint x="-120" y="120" as="targetPoint" />
            <Array as="points">
              <mxPoint x="-10" y="135" />
            </Array>
          </mxGeometry>
        </mxCell>
        <mxCell id="jpMDB658xM3ZWiIn-4ZV-169" value="" style="edgeStyle=none;strokeColor=#FF0000;endArrow=open;endFill=1;rounded=0" edge="1" parent="jpMDB658xM3ZWiIn-4ZV-166" target="jpMDB658xM3ZWiIn-4ZV-167">
          <mxGeometry width="100" height="100" relative="1" as="geometry">
            <mxPoint x="-30" y="429.5" as="sourcePoint" />
            <mxPoint x="90" y="429.5" as="targetPoint" />
          </mxGeometry>
        </mxCell>
        <mxCell id="jpMDB658xM3ZWiIn-4ZV-170" value="" style="ellipse;shape=endState;fillColor=#000000;strokeColor=#ff0000" vertex="1" parent="jpMDB658xM3ZWiIn-4ZV-166">
          <mxGeometry x="130" y="500" width="30" height="30" as="geometry" />
        </mxCell>
        <mxCell id="jpMDB658xM3ZWiIn-4ZV-171" value="" style="endArrow=open;strokeColor=#FF0000;endFill=1;rounded=0" edge="1" parent="jpMDB658xM3ZWiIn-4ZV-166" source="jpMDB658xM3ZWiIn-4ZV-167" target="jpMDB658xM3ZWiIn-4ZV-170">
          <mxGeometry relative="1" as="geometry" />
        </mxCell>
      </root>
    </mxGraphModel>
  </diagram>
  <diagram id="GfIvPcnfgYNu22hD7TR7" name="第 2 页">
    <mxGraphModel dx="1434" dy="754" grid="1" gridSize="10" guides="1" tooltips="1" connect="1" arrows="1" fold="1" page="1" pageScale="1" pageWidth="827" pageHeight="1169" math="0" shadow="0">
      <root>
        <mxCell id="0" />
        <mxCell id="1" parent="0" />
      </root>
    </mxGraphModel>
  </diagram>
</mxfile>
